# xmcd
#
# Track frame offsets: 
#        150
#        17102
#        38471
#        56719
#        74779
#        92045
#        113149
#        138119
#
# Disc length: 2111 seconds
#
# Revision: 0
# Processed by: cddbd v1.5.2PL0 Copyright (c) Steve Scherf et al.
# Submitted via: ExactAudioCopy v1.3
#
DISCID=69083d08
DTITLE=Jay O'Rourke - Jay O'Rourke
DYEAR=2017
DGENRE=Blues Rock
TTITLE0=Early Grave
TTITLE1=She Don't Mind
TTITLE2=It's All Mine
TTITLE3=Push It
TTITLE4=Just Like Always
TTITLE5=It's Alright
TTITLE6=Sky To Fall
TTITLE7=The Last Night Of The World
EXTD=
EXTT0=
EXTT1=
EXTT2=
EXTT3=
EXTT4=
EXTT5=
EXTT6=
EXTT7=
PLAYORDER=
